<?xml version="1.0" encoding="UTF-8" standalone="no"?>
<!DOCTYPE svg PUBLIC "-//W3C//DTD SVG 1.1//EN"
 "http://www.w3.org/Graphics/SVG/1.1/DTD/svg11.dtd">
<!-- Generated by graphviz version 5.0.0 (20220707.1540)
 -->
<!-- Title: dependencies Pages: 1 -->
<svg width="356pt" height="318pt"
 viewBox="0.00 0.00 356.00 317.80" xmlns="http://www.w3.org/2000/svg" xmlns:xlink="http://www.w3.org/1999/xlink">
<g id="graph0" class="graph" transform="scale(1 1) rotate(0) translate(4 313.8)">
<title>dependencies</title>
<polygon fill="white" stroke="transparent" points="-4,4 -4,-313.8 352,-313.8 352,4 -4,4"/>
<text text-anchor="middle" x="174" y="-8.2" font-family="sans-serif" font-size="14.00">dependencies</text>
<g id="clust1" class="cluster">
<title>cluster_AppModule</title>
<polygon fill="none" stroke="black" stroke-dasharray="1,5" points="8,-176.8 8,-301.8 274,-301.8 274,-176.8 8,-176.8"/>
</g>
<g id="clust3" class="cluster">
<title>cluster_AppModule_imports</title>
<polygon fill="none" stroke="black" points="154,-184.8 154,-236.8 266,-236.8 266,-184.8 154,-184.8"/>
</g>
<g id="clust6" class="cluster">
<title>cluster_AppModule_providers</title>
<polygon fill="none" stroke="black" points="16,-184.8 16,-236.8 146,-236.8 146,-184.8 16,-184.8"/>
</g>
<g id="clust7" class="cluster">
<title>cluster_AuthModule</title>
<polygon fill="none" stroke="black" stroke-dasharray="1,5" points="24,-32.8 24,-160.8 170,-160.8 170,-32.8 24,-32.8"/>
</g>
<g id="clust12" class="cluster">
<title>cluster_AuthModule_providers</title>
<polygon fill="none" stroke="black" points="32,-40.8 32,-92.8 162,-92.8 162,-40.8 32,-40.8"/>
</g>
<g id="clust13" class="cluster">
<title>cluster_BooksModule</title>
<polygon fill="none" stroke="black" stroke-dasharray="1,5" points="178,-100.8 178,-168.8 340,-168.8 340,-100.8 178,-100.8"/>
</g>
<g id="clust18" class="cluster">
<title>cluster_BooksModule_providers</title>
<polygon fill="none" stroke="black" points="186,-108.8 186,-160.8 332,-160.8 332,-108.8 186,-108.8"/>
</g>
<!-- BooksModule -->
<g id="node1" class="node">
<title>BooksModule</title>
<polygon fill="#8dd3c7" stroke="black" points="257.84,-228.8 254.84,-232.8 233.84,-232.8 230.84,-228.8 162.16,-228.8 162.16,-192.8 257.84,-192.8 257.84,-228.8"/>
<text text-anchor="middle" x="210" y="-206.6" font-family="Times,serif" font-size="14.00">BooksModule</text>
</g>
<!-- AppModule -->
<g id="node2" class="node">
<title>AppModule</title>
<polygon fill="#8dd3c7" stroke="black" points="186.66,-293.8 183.66,-297.8 162.66,-297.8 159.66,-293.8 103.34,-293.8 103.34,-257.8 186.66,-257.8 186.66,-293.8"/>
<text text-anchor="middle" x="145" y="-271.6" font-family="Times,serif" font-size="14.00">AppModule</text>
</g>
<!-- BooksModule&#45;&gt;AppModule -->
<g id="edge1" class="edge">
<title>BooksModule&#45;&gt;AppModule</title>
<path fill="none" stroke="black" d="M174.58,-228.91C174.58,-228.91 174.58,-247.79 174.58,-247.79"/>
<polygon fill="black" stroke="black" points="171.08,-247.79 174.58,-257.79 178.08,-247.79 171.08,-247.79"/>
</g>
<!-- AppService -->
<g id="node3" class="node">
<title>AppService</title>
<ellipse fill="#fdb462" stroke="black" cx="81" cy="-210.8" rx="56.75" ry="18"/>
<text text-anchor="middle" x="81" y="-206.6" font-family="Times,serif" font-size="14.00">AppService</text>
</g>
<!-- AppService&#45;&gt;AppModule -->
<g id="edge2" class="edge">
<title>AppService&#45;&gt;AppModule</title>
<path fill="none" stroke="black" d="M120.4,-223.95C120.4,-223.95 120.4,-247.49 120.4,-247.49"/>
<polygon fill="black" stroke="black" points="116.9,-247.49 120.4,-257.49 123.9,-247.49 116.9,-247.49"/>
</g>
<!-- JwtStrategy -->
<g id="node4" class="node">
<title>JwtStrategy</title>
<ellipse fill="#fdb462" stroke="black" cx="97" cy="-66.8" rx="56.77" ry="18"/>
<text text-anchor="middle" x="97" y="-62.6" font-family="Times,serif" font-size="14.00">JwtStrategy</text>
</g>
<!-- AuthModule -->
<g id="node5" class="node">
<title>AuthModule</title>
<polygon fill="#8dd3c7" stroke="black" points="150.55,-152.8 147.55,-156.8 126.55,-156.8 123.55,-152.8 63.45,-152.8 63.45,-116.8 150.55,-116.8 150.55,-152.8"/>
<text text-anchor="middle" x="107" y="-130.6" font-family="Times,serif" font-size="14.00">AuthModule</text>
</g>
<!-- JwtStrategy&#45;&gt;AuthModule -->
<g id="edge3" class="edge">
<title>JwtStrategy&#45;&gt;AuthModule</title>
<path fill="none" stroke="black" d="M107,-84.67C107,-84.67 107,-106.34 107,-106.34"/>
<polygon fill="black" stroke="black" points="103.5,-106.34 107,-116.34 110.5,-106.34 103.5,-106.34"/>
</g>
<!-- AuthModule&#45;&gt;BooksModule -->
<g id="edge4" class="edge">
<title>AuthModule&#45;&gt;BooksModule</title>
<path fill="none" stroke="black" d="M144.2,-152.81C144.2,-175.29 144.2,-210.8 144.2,-210.8 144.2,-210.8 152.18,-210.8 152.18,-210.8"/>
<polygon fill="black" stroke="black" points="152.18,-214.3 162.18,-210.8 152.18,-207.3 152.18,-214.3"/>
</g>
<!-- BooksService -->
<g id="node6" class="node">
<title>BooksService</title>
<ellipse fill="#fdb462" stroke="black" cx="259" cy="-134.8" rx="64.86" ry="18"/>
<text text-anchor="middle" x="259" y="-130.6" font-family="Times,serif" font-size="14.00">BooksService</text>
</g>
<!-- BooksService&#45;&gt;BooksModule -->
<g id="edge5" class="edge">
<title>BooksService&#45;&gt;BooksModule</title>
<path fill="none" stroke="black" d="M226,-150.55C226,-150.55 226,-182.67 226,-182.67"/>
<polygon fill="black" stroke="black" points="222.5,-182.67 226,-192.67 229.5,-182.67 222.5,-182.67"/>
</g>
</g>
</svg>
