<?xml version="1.0" encoding="UTF-8" standalone="no"?>
<!DOCTYPE svg PUBLIC "-//W3C//DTD SVG 1.1//EN"
 "http://www.w3.org/Graphics/SVG/1.1/DTD/svg11.dtd">
<!-- Generated by graphviz version 5.0.0 (20220707.1540)
 -->
<!-- Title: dependencies Pages: 1 -->
<svg width="298pt" height="174pt"
 viewBox="0.00 0.00 298.00 173.80" xmlns="http://www.w3.org/2000/svg" xmlns:xlink="http://www.w3.org/1999/xlink">
<g id="graph0" class="graph" transform="scale(1 1) rotate(0) translate(4 169.8)">
<title>dependencies</title>
<polygon fill="white" stroke="transparent" points="-4,4 -4,-169.8 294,-169.8 294,4 -4,4"/>
<text text-anchor="middle" x="145" y="-8.2" font-family="sans-serif" font-size="14.00">dependencies</text>
<g id="clust1" class="cluster">
<title>cluster_BooksModule</title>
<polygon fill="none" stroke="black" stroke-dasharray="1,5" points="8,-32.8 8,-157.8 282,-157.8 282,-32.8 8,-32.8"/>
</g>
<g id="clust6" class="cluster">
<title>cluster_BooksModule_providers</title>
<polygon fill="none" stroke="black" points="128,-40.8 128,-92.8 274,-92.8 274,-40.8 128,-40.8"/>
</g>
<g id="clust3" class="cluster">
<title>cluster_BooksModule_imports</title>
<polygon fill="none" stroke="black" points="16,-40.8 16,-92.8 120,-92.8 120,-40.8 16,-40.8"/>
</g>
<!-- AuthModule -->
<g id="node1" class="node">
<title>AuthModule</title>
<polygon fill="#8dd3c7" stroke="black" points="111.55,-84.8 108.55,-88.8 87.55,-88.8 84.55,-84.8 24.45,-84.8 24.45,-48.8 111.55,-48.8 111.55,-84.8"/>
<text text-anchor="middle" x="68" y="-62.6" font-family="Times,serif" font-size="14.00">AuthModule</text>
</g>
<!-- BooksModule -->
<g id="node2" class="node">
<title>BooksModule</title>
<polygon fill="#8dd3c7" stroke="black" points="181.84,-149.8 178.84,-153.8 157.84,-153.8 154.84,-149.8 86.16,-149.8 86.16,-113.8 181.84,-113.8 181.84,-149.8"/>
<text text-anchor="middle" x="134" y="-127.6" font-family="Times,serif" font-size="14.00">BooksModule</text>
</g>
<!-- AuthModule&#45;&gt;BooksModule -->
<g id="edge1" class="edge">
<title>AuthModule&#45;&gt;BooksModule</title>
<path fill="none" stroke="black" d="M99.05,-84.91C99.05,-84.91 99.05,-103.79 99.05,-103.79"/>
<polygon fill="black" stroke="black" points="95.55,-103.79 99.05,-113.79 102.55,-103.79 95.55,-103.79"/>
</g>
<!-- BooksService -->
<g id="node3" class="node">
<title>BooksService</title>
<ellipse fill="#fdb462" stroke="black" cx="201" cy="-66.8" rx="64.86" ry="18"/>
<text text-anchor="middle" x="201" y="-62.6" font-family="Times,serif" font-size="14.00">BooksService</text>
</g>
<!-- BooksService&#45;&gt;BooksModule -->
<g id="edge2" class="edge">
<title>BooksService&#45;&gt;BooksModule</title>
<path fill="none" stroke="black" d="M159,-80.58C159,-80.58 159,-103.35 159,-103.35"/>
<polygon fill="black" stroke="black" points="155.5,-103.35 159,-113.35 162.5,-103.35 155.5,-103.35"/>
</g>
</g>
</svg>
